<svg width="24" height="24" viewBox="0 0 24 24" fill="none" xmlns="http://www.w3.org/2000/svg">
<g clip-path="url(#clip0_403_2799)">
<path d="M12 11.9999C13.1867 11.9999 14.3467 11.648 15.3334 10.9888C16.3201 10.3295 17.0892 9.3924 17.5433 8.29604C17.9974 7.19969 18.1162 5.99329 17.8847 4.8294C17.6532 3.66551 17.0818 2.59642 16.2426 1.7573C15.4035 0.918186 14.3344 0.346741 13.1705 0.11523C12.0067 -0.116281 10.8003 0.00253868 9.7039 0.456664C8.60754 0.91079 7.67047 1.67983 7.01118 2.66652C6.35189 3.65322 6 4.81325 6 5.99994C6.00159 7.59075 6.63424 9.11595 7.75911 10.2408C8.88399 11.3657 10.4092 11.9984 12 11.9999ZM12 1.99994C12.7911 1.99994 13.5645 2.23454 14.2223 2.67406C14.8801 3.11359 15.3928 3.7383 15.6955 4.46921C15.9983 5.20011 16.0775 6.00438 15.9231 6.7803C15.7688 7.55623 15.3878 8.26896 14.8284 8.82837C14.269 9.38778 13.5563 9.76874 12.7804 9.92308C12.0044 10.0774 11.2002 9.99821 10.4693 9.69546C9.73836 9.39271 9.11365 8.88002 8.67412 8.22222C8.2346 7.56443 8 6.79107 8 5.99994C8 4.93908 8.42143 3.92166 9.17157 3.17151C9.92172 2.42137 10.9391 1.99994 12 1.99994V1.99994Z" fill="#27BE9A"/>
<path d="M12 12C9.61386 12.0032 7.32622 13.142 5.63896 15.1668C3.95171 17.1915 3.00265 19.9366 3 22.8C3 23.1183 3.10536 23.4235 3.29289 23.6485C3.48043 23.8736 3.73478 24 4 24C4.26522 24 4.51957 23.8736 4.70711 23.6485C4.89464 23.4235 5 23.1183 5 22.8C5 20.5722 5.7375 18.4356 7.05025 16.8603C8.36301 15.285 10.1435 14.4 12 14.4C13.8565 14.4 15.637 15.285 16.9497 16.8603C18.2625 18.4356 19 20.5722 19 22.8C19 23.1183 19.1054 23.4235 19.2929 23.6485C19.4804 23.8736 19.7348 24 20 24C20.2652 24 20.5196 23.8736 20.7071 23.6485C20.8946 23.4235 21 23.1183 21 22.8C20.9974 19.9366 20.0483 17.1915 18.361 15.1668C16.6738 13.142 14.3861 12.0032 12 12V12Z" fill="#27BE9A"/>
</g>
<defs>
<clipPath id="clip0_403_2799">
<rect width="24" height="24" fill="white"/>
</clipPath>
</defs>
</svg>
