<svg width="24" height="24" viewBox="0 0 24 24" fill="none" xmlns="http://www.w3.org/2000/svg">
<g clip-path="url(#clip0_403_3655)">
<path d="M18.7 8V7C18.7 5.14348 17.8888 3.36301 16.4447 2.05025C15.0007 0.737498 13.0422 0 11 0C8.95783 0 6.99931 0.737498 5.55528 2.05025C4.11125 3.36301 3.3 5.14348 3.3 7V8H0L0 21C0 21.7956 0.347678 22.5587 0.966548 23.1213C1.58542 23.6839 2.42479 24 3.3 24H18.7C19.5752 24 20.4146 23.6839 21.0335 23.1213C21.6523 22.5587 22 21.7956 22 21V8H18.7ZM5.5 7C5.5 5.67392 6.07946 4.40215 7.11091 3.46447C8.14236 2.52678 9.54131 2 11 2C12.4587 2 13.8576 2.52678 14.8891 3.46447C15.9205 4.40215 16.5 5.67392 16.5 7V8H5.5V7ZM19.8 21C19.8 21.2652 19.6841 21.5196 19.4778 21.7071C19.2715 21.8946 18.9917 22 18.7 22H3.3C3.00826 22 2.72847 21.8946 2.52218 21.7071C2.31589 21.5196 2.2 21.2652 2.2 21V10H19.8V21Z" fill="#27BE9A"/>
<path d="M12 14H10V18H12V14Z" fill="#27BE9A"/>
</g>
<defs>
<clipPath id="clip0_403_3655">
<rect width="24" height="24" fill="white"/>
</clipPath>
</defs>
</svg>
